# xmcd CD database file
#
# Track frame offsets:
#	150
#	24375
#	50101
#	73693
#	113684
#	146418
#	184284
#	214451
#	243798
#	272988
#	294975
#	316885
#
# Disc length: 4780 seconds
#
# Revision: 4
# Processed by: cddbd v1.5.2PL0 Copyright (c) Steve Scherf et al.
# Submitted via: CDex 1.51
#
DISCID=b812aa0c
DTITLE=Ken Follett - Die Tore der Welt
DYEAR=2008
DGENRE=Hörbuch
TTITLE0=063 Die Werkstatt von Peter Dyer
TTITLE1=064 "Du hast noch 40 Sack Wolle übrig ..."
TTITLE2=065 Ralf hielt sich wieder einmal in Wigley auf
TTITLE3=066 Vater Gaspar, Anette und ihr Mann Billy
TTITLE4=067 Merthin war bei seinen Eltern
TTITLE5=068 In der Nacht vor seinem Prozess
TTITLE6=069 Merthin bat eine Woche später
TTITLE7=070 Ralf und Tam ritten den Hügel hinauf
TTITLE8=071 Am ersten Tag des Wollmarkts
TTITLE9=072 Am Mittwochmorgen
TTITLE10=073 Caris war nicht in der Lage
TTITLE11=074 Das war ein machtvoller Beweis
EXTD=vollstaendige Lesung von Joachim Kerzel YEAR: 2008
EXTT0=
EXTT1=
EXTT2=
EXTT3=
EXTT4=
EXTT5=
EXTT6=
EXTT7=
EXTT8=
EXTT9=
EXTT10=
EXTT11=
PLAYORDER=
